<?xml version="1.0" encoding="UTF-8"?>
<svg width="68px" height="68px" viewBox="0 0 68 68" version="1.1" xmlns="http://www.w3.org/2000/svg" xmlns:xlink="http://www.w3.org/1999/xlink">
    <title>编组 35@3x</title>
    <g id="提现" stroke="none" stroke-width="1" fill="none" fill-rule="evenodd">
        <g id="画板" transform="translate(-98.000000, -186.000000)">
            <g id="编组备份-3" transform="translate(98.000000, 186.000000)">
                <g id="编组-37" transform="translate(8.500000, 5.666667)">
                    <path d="M27.2969259,56.6666667 C12.245445,56.6666667 0,43.956406 0,28.3335973 C0,12.7102606 12.245445,0 27.2969259,0 C36.3787778,0 44.8396092,4.66841813 49.9288235,12.4885332 C51.5050252,14.9101134 50.891634,18.1990702 48.5586113,19.834046 C46.2266057,21.4711335 43.0574178,20.8344591 41.4817247,18.4123509 C38.2901577,13.5095352 32.9878332,10.5816774 27.2969259,10.5816774 C17.8666719,10.5816774 10.1947043,18.5453874 10.1947043,28.3335973 C10.1947043,38.1218072 17.8666719,46.0849893 27.2969259,46.0849893 C33.0982029,46.0849893 38.4574924,43.0689684 41.6332923,38.0178065 C43.1713479,35.5693022 46.3318893,34.8798355 48.6872912,36.4778568 C51.0452362,38.0737663 51.709489,41.3526926 50.1709248,43.7996131 C45.1066327,51.8567653 36.5552676,56.6666667 27.2969259,56.6666667" id="Fill-1" fill="#007AFF"></path>
                    <path d="M48.7556492,34.1376822 L24.125907,34.1376822 C20.9684173,34.1376822 18.4085516,31.4811765 18.4085516,28.203306 C18.4085516,24.9259635 20.9684173,22.2694578 24.125907,22.2694578 L48.7556492,22.2694578 C49.8715533,22.2694578 50.7763816,23.2081039 50.7763816,24.3658378 L50.7763816,32.0407742 C50.7763816,33.1990361 49.8715533,34.1376822 48.7556492,34.1376822" id="Fill-3" fill="#007AFF"></path>
                    <path d="M28.822266,28.3359202 C28.822266,30.5574178 27.087376,32.3581612 24.9471188,32.3581612 C22.8073702,32.3581612 21.0724801,30.5574178 21.0724801,28.3359202 C21.0724801,26.1144225 22.8073702,24.3136791 24.9471188,24.3136791 C27.087376,24.3136791 28.822266,26.1144225 28.822266,28.3359202" id="Fill-5" fill="#FFFFFF"></path>
                </g>
            </g>
        </g>
    </g>
</svg>